<?xml version="1.0" standalone="no"?>
<!DOCTYPE svg PUBLIC "-//W3C//DTD SVG 20010904//EN"
 "http://www.w3.org/TR/2001/REC-SVG-20010904/DTD/svg10.dtd">
<svg version="1.0" xmlns="http://www.w3.org/2000/svg"
 width="500.000000pt" height="500.000000pt" viewBox="0 0 500.000000 500.000000"
 preserveAspectRatio="xMidYMid meet">

<g transform="translate(0.000000,500.000000) scale(0.100000,-0.100000)"
fill="#000000" stroke="none">
<path d="M1776 4083 c14 -77 47 -146 90 -190 24 -24 44 -45 44 -48 0 -2 -10
-5 -22 -7 -20 -3 -14 -10 38 -48 34 -25 70 -50 80 -57 17 -10 16 -12 -15 -19
l-35 -7 36 -31 c20 -17 76 -53 124 -80 109 -60 102 -55 82 -70 -43 -31 -40
-91 7 -122 34 -22 78 -5 96 38 12 28 13 29 26 12 23 -31 16 -63 -19 -84 -81
-49 -157 -5 -194 114 l-13 41 0 -65 c-1 -114 52 -163 182 -164 49 -1 71 -5 77
-16 5 -8 26 -63 46 -122 19 -59 39 -110 44 -113 9 -6 38 60 70 160 12 39 26
74 31 79 5 5 40 10 77 11 127 3 183 55 181 170 0 61 -9 57 -24 -9 -3 -16 -23
-47 -44 -68 -32 -31 -46 -38 -78 -38 -51 0 -93 31 -93 69 0 15 5 32 12 39 9 9
15 5 24 -18 7 -17 25 -34 38 -40 75 -28 133 70 71 119 l-26 19 98 56 c54 30
114 68 133 84 l34 29 -39 7 -38 7 49 29 c27 16 65 42 84 59 32 28 33 30 13 31
-31 0 -29 6 16 51 21 22 47 56 57 77 18 37 46 143 40 149 -2 2 -19 -5 -37 -16
-19 -11 -69 -33 -112 -50 -153 -61 -212 -103 -272 -195 -24 -37 -28 -28 -8 23
24 61 13 67 -105 62 -131 -5 -182 -5 -282 0 -92 4 -145 -5 -137 -24 3 -7 12
-30 21 -52 l16 -40 -22 30 c-70 93 -120 129 -261 189 -75 32 -140 62 -143 67
-14 23 -24 6 -18 -28z"/>
<path d="M1845 3679 c-13 -73 19 -349 38 -330 7 7 18 -12 33 -56 13 -36 40
-91 60 -121 34 -52 38 -54 50 -37 8 10 14 22 14 27 0 17 17 7 28 -16 16 -36
79 -103 128 -137 40 -27 44 -28 53 -12 10 16 15 13 53 -27 24 -25 68 -73 98
-108 l55 -63 95 110 c85 98 96 107 105 90 10 -18 13 -18 55 10 50 32 86 67
123 124 l26 38 17 -26 17 -25 24 32 c33 44 68 113 83 165 8 26 17 40 25 37 19
-8 37 139 33 263 l-3 103 -58 -53 -57 -52 11 -67 c9 -55 8 -77 -5 -120 -22
-74 -59 -115 -215 -232 -128 -97 -209 -173 -257 -240 l-21 -29 -30 44 c-43 62
-119 131 -253 230 -197 146 -233 207 -212 357 l9 63 -58 50 -57 49 -7 -41z"/>
<path d="M1920 3073 c-50 -119 -97 -266 -122 -377 -32 -142 -32 -332 -1 -431
26 -83 85 -170 145 -215 l43 -31 12 48 c6 26 12 39 12 28 1 -11 14 -57 30
-101 32 -94 101 -203 166 -263 48 -44 47 -49 -8 -26 -20 8 -38 11 -40 7 -10
-18 17 -76 53 -112 l40 -40 -31 0 c-34 0 -99 -27 -99 -41 0 -5 8 -9 17 -9 14
0 13 -3 -5 -23 -28 -30 -28 -35 4 -29 l26 5 -26 -26 c-29 -29 -34 -74 -14
-138 l11 -39 17 50 c9 28 26 60 36 71 66 75 260 61 294 -21 7 -16 9 -34 5 -39
-8 -14 1 -14 26 -1 10 6 27 26 37 46 l18 35 62 -83 c102 -137 153 -246 175
-381 l12 -69 46 41 c84 74 95 146 43 275 -13 33 -24 61 -24 64 0 2 48 -42 106
-97 117 -111 118 -111 154 -41 45 88 34 206 -29 335 -50 100 -88 146 -160 192
-404 259 -689 656 -716 1002 l-5 66 24 -85 c24 -83 68 -196 98 -254 15 -28 15
-27 22 60 7 89 23 179 35 201 3 6 6 -61 6 -150 1 -209 10 -249 80 -340 60 -78
125 -154 125 -145 0 3 -11 31 -25 61 -22 48 -51 204 -40 216 2 1 9 -17 15 -40
19 -72 57 -181 83 -241 20 -46 40 -68 102 -117 76 -61 163 -117 169 -110 2 2
-7 51 -20 109 -32 142 -44 235 -44 340 0 144 12 136 37 -25 42 -275 102 -472
149 -494 14 -6 27 -11 30 -11 3 0 2 28 -1 63 l-6 62 37 -77 c35 -75 37 -77 93
-97 108 -38 104 -39 70 21 -71 130 -101 288 -124 658 -16 269 -32 385 -71 501
-34 103 -82 182 -154 252 l-60 58 -54 -59 c-53 -56 -156 -124 -156 -103 0 24
-21 6 -104 -89 -48 -55 -90 -100 -94 -100 -4 1 -26 24 -50 53 -97 117 -132
152 -140 140 -13 -21 -89 26 -155 96 -57 61 -60 64 -74 45 -14 -18 -15 -18
-43 14 -17 17 -32 32 -34 32 -2 0 -19 -35 -36 -77z"/>
</g>
</svg>
