<?xml version="1.0" standalone="no"?>
<!DOCTYPE svg PUBLIC "-//W3C//DTD SVG 20010904//EN"
 "http://www.w3.org/TR/2001/REC-SVG-20010904/DTD/svg10.dtd">
<svg version="1.0" xmlns="http://www.w3.org/2000/svg"
 width="256.000000pt" height="256.000000pt" viewBox="0 0 256.000000 256.000000"
 preserveAspectRatio="xMidYMid meet">

<g transform="translate(0.000000,256.000000) scale(0.100000,-0.100000)"
fill="#000000" stroke="none">
<path d="M910 2089 c0 -28 36 -96 57 -108 14 -8 15 -11 3 -11 -9 0 1 -15 25
-35 22 -19 34 -35 28 -35 -26 0 -11 -16 45 -49 31 -19 58 -35 60 -37 2 -1 -2
-11 -9 -22 -7 -11 -9 -27 -6 -36 8 -20 56 -21 63 -1 4 8 10 12 15 9 15 -9 10
-23 -16 -40 -23 -15 -27 -15 -50 0 -14 10 -30 29 -36 43 -13 34 -23 23 -14
-16 9 -40 40 -61 91 -61 l42 0 22 -66 c12 -36 25 -62 28 -59 4 4 16 32 27 63
l20 57 47 3 c54 3 88 35 87 81 0 26 0 26 -16 -6 -22 -43 -58 -59 -89 -38 -13
8 -24 19 -24 24 0 18 14 20 31 5 10 -9 26 -14 36 -12 21 4 30 43 14 62 -8 10
-5 16 14 24 13 6 43 23 67 38 35 23 39 28 24 34 -15 5 -13 9 18 30 20 14 34
30 32 37 -3 6 2 17 10 24 23 19 44 64 44 94 0 24 -1 25 -22 11 -13 -7 -45 -22
-73 -32 -27 -10 -66 -35 -86 -56 -33 -34 -36 -35 -32 -13 l5 24 -133 -2 c-132
-2 -134 -2 -132 -24 2 -20 -1 -19 -30 12 -18 19 -66 50 -109 69 -73 33 -78 34
-78 15z"/>
<path d="M945 1891 c-12 -21 7 -144 32 -200 31 -70 53 -97 65 -79 6 10 11 8
20 -7 21 -35 70 -76 86 -70 10 3 32 -13 62 -47 l47 -53 47 52 c31 34 52 50 62
46 10 -4 31 11 58 40 30 32 46 43 53 36 8 -8 22 10 47 58 31 57 38 81 43 151
6 88 1 97 -35 59 -17 -18 -22 -36 -22 -79 0 -68 -13 -87 -121 -168 -43 -33
-90 -76 -104 -94 l-26 -35 -37 41 c-20 22 -72 67 -114 100 -89 67 -111 101
-107 164 3 37 -2 49 -23 70 -17 17 -28 22 -33 15z"/>
<path d="M981 1567 c-60 -141 -87 -313 -62 -405 11 -40 73 -122 91 -122 5 0
10 8 12 18 2 9 13 -9 25 -43 13 -34 40 -81 60 -105 21 -24 31 -41 21 -38 -26
11 -29 -3 -8 -37 l20 -33 -25 -6 c-19 -5 -25 -13 -25 -34 0 -15 -2 -41 -6 -58
-3 -19 -1 -34 5 -38 6 -4 11 -1 11 7 0 29 45 57 91 57 50 0 75 -14 81 -45 3
-19 4 -18 25 4 l21 23 32 -43 c45 -62 61 -95 80 -164 l17 -59 28 28 c24 24 27
33 22 74 -2 26 -8 56 -13 67 -4 12 14 0 46 -29 l53 -50 18 23 c13 16 19 39 19
70 -1 96 -45 167 -143 233 -80 53 -202 179 -246 251 -43 73 -78 161 -85 217
l-6 45 15 -40 c8 -22 22 -60 31 -84 19 -50 34 -40 34 24 1 82 16 61 17 -23 2
-104 8 -123 62 -182 l41 -45 -15 37 c-8 21 -15 48 -14 60 0 13 12 -8 26 -47
14 -38 33 -78 42 -89 16 -19 113 -87 117 -83 1 1 -4 28 -11 60 -19 82 -30 207
-18 207 6 0 13 -24 16 -53 9 -73 44 -206 62 -234 22 -33 35 -28 29 10 -5 32
-5 31 16 -9 15 -30 30 -44 55 -52 19 -5 35 -9 35 -9 0 1 -9 26 -21 56 -28 76
-36 123 -49 306 -16 230 -44 320 -119 387 -30 27 -30 27 -44 7 -21 -29 -77
-68 -90 -63 -7 2 -30 -18 -52 -46 -22 -27 -43 -49 -47 -50 -4 0 -26 22 -48 49
-23 27 -47 48 -54 45 -7 -3 -34 14 -60 37 -26 23 -50 39 -53 35 -4 -3 -15 1
-24 10 -18 16 -20 14 -38 -29z"/>
</g>
</svg>
